# Blender 4.4.3
# www.blender.org
mtllib Path.mtl
o Cube
v 10.000000 -0.500000 -25.030872
v 10.000000 0.500000 -25.030872
v -10.000000 -0.500000 -25.030872
v -10.000000 0.500000 -25.030872
v -10.000000 -0.500000 0.000000
v -10.000000 0.500000 0.000000
v 10.000000 -0.500000 0.000000
v 10.000000 0.500000 0.000000
v -10.000001 0.500000 -40.030869
v -10.000001 -0.500000 -40.030869
v 9.999999 -0.500000 -40.030869
v 9.999999 0.500000 -40.030869
v -10.000000 2.146382 -25.030872
v 10.000000 2.146382 -25.030872
v -10.000001 2.146382 -40.030869
v 9.999999 2.146382 -40.030869
v 10.000000 -0.500000 25.030872
v 10.000000 0.500000 25.030872
v -10.000000 -0.500000 25.030872
v -10.000000 0.500000 25.030872
v -10.000001 0.500000 40.030869
v -10.000001 -0.500000 40.030869
v 9.999999 -0.500000 40.030869
v 9.999999 0.500000 40.030869
v -10.000000 2.146382 25.030872
v 10.000000 2.146382 25.030872
v -10.000001 2.146382 40.030869
v 9.999999 2.146382 40.030869
vn -1.0000 -0.0000 -0.0000
vn -0.0000 -1.0000 -0.0000
vn -0.0000 1.0000 -0.0000
vn 1.0000 -0.0000 -0.0000
vn -0.0000 -0.0000 -1.0000
vn -0.0000 -0.0000 1.0000
vt 0.375000 0.375000
vt 0.625000 0.375000
vt 0.625000 0.500000
vt 0.375000 0.500000
vt 0.375000 0.750000
vt 0.250000 0.500000
vt 0.250000 0.750000
vt 0.750000 0.500000
vt 0.750000 0.750000
vt 0.625000 0.750000
vt 0.625000 0.875000
vt 0.375000 0.875000
s 0
f 5/1/1 6/2/1 4/3/1 3/4/1
f 1/5/2 3/4/2 10/4/2 11/5/2
f 5/6/2 3/4/2 1/5/2 7/7/2
f 4/3/3 6/8/3 8/9/3 2/10/3
f 1/5/4 2/10/4 8/11/4 7/12/4
f 10/4/5 9/3/5 12/10/5 11/5/5
f 2/10/4 12/10/4 16/10/4 14/10/4
f 3/4/1 4/3/1 9/3/1 10/4/1
f 2/10/4 1/5/4 11/5/4 12/10/4
f 13/3/3 14/10/3 16/10/3 15/3/3
f 4/3/6 2/10/6 14/10/6 13/3/6
f 12/10/5 9/3/5 15/3/5 16/10/5
f 9/3/1 4/3/1 13/3/1 15/3/1
f 5/1/1 19/4/1 20/3/1 6/2/1
f 17/5/2 23/5/2 22/4/2 19/4/2
f 5/6/2 7/7/2 17/5/2 19/4/2
f 20/3/3 18/10/3 8/9/3 6/8/3
f 17/5/4 7/12/4 8/11/4 18/10/4
f 22/4/6 23/5/6 24/10/6 21/3/6
f 18/10/4 26/10/4 28/10/4 24/10/4
f 19/4/1 22/4/1 21/3/1 20/3/1
f 18/10/4 24/10/4 23/5/4 17/5/4
f 25/3/3 27/3/3 28/10/3 26/10/3
f 20/3/5 25/3/5 26/10/5 18/10/5
f 24/10/6 28/10/6 27/3/6 21/3/6
f 21/3/1 27/3/1 25/3/1 20/3/1
