# Blender 4.4.3
# www.blender.org
mtllib OxxoStore.mtl
o Plane
v -18.000000 0.000000 18.000000
v 18.000000 0.000000 18.000000
v -18.000000 0.000000 -18.000000
v 18.000000 0.000000 -18.000000
v -18.000000 0.100000 18.000000
v 18.000000 0.100000 18.000000
v -18.000000 0.100000 -18.000000
v 18.000000 0.100000 -18.000000
vn -0.0000 -1.0000 -0.0000
vn -0.0000 1.0000 -0.0000
vn 1.0000 -0.0000 -0.0000
vn -1.0000 -0.0000 -0.0000
vn -0.0000 -0.0000 -1.0000
vn -0.0000 -0.0000 1.0000
vt 0.000000 0.000000
vt 0.000000 1.000000
vt 1.000000 1.000000
vt 1.000000 0.000000
vt 0.355908 0.380559
vt 0.355908 0.284599
vt 0.451868 0.284599
vt 0.451868 0.380559
s 0
usemtl OxxoMaterial
f 1/1/1 3/2/1 4/3/1 2/4/1
f 5/5/2 6/6/2 8/7/2 7/8/2
f 2/4/3 4/3/3 8/3/3 6/4/3
f 3/2/4 1/1/4 5/1/4 7/2/4
f 4/3/5 3/2/5 7/2/5 8/3/5
f 1/1/6 2/4/6 6/4/6 5/1/6
o OxxoBase
v -15.000000 0.100000 15.000000
v -15.000000 9.100000 15.000000
v -15.000000 0.100000 -15.000000
v -15.000000 9.100000 -15.000000
v -12.974724 7.098261 14.161842
v 15.000000 0.100000 15.000000
v 15.000000 9.100000 15.000000
v 15.000000 0.100000 -15.000000
v 12.974724 7.098261 14.161842
v 15.000000 9.100000 -15.000000
v -15.415285 9.100000 15.415285
v -15.415285 9.100000 -15.415285
v 15.415285 9.100000 -15.415285
v 15.415285 9.100000 15.415285
v -14.454797 13.861764 14.454797
v -14.454797 13.861764 -14.454797
v 14.454797 13.861764 -14.454797
v 14.454797 13.861764 14.454797
v -15.415285 13.861764 15.415285
v -15.415285 13.861764 -15.415285
v 15.415285 13.861764 -15.415285
v 15.415285 13.861764 15.415285
v -14.454797 9.959829 14.454797
v -14.454797 9.959829 -14.454797
v 14.454797 9.959829 -14.454797
v 14.454797 9.959829 14.454797
v 12.974724 7.098261 15.000000
v -12.974724 0.100000 15.000000
v 12.974724 0.100000 15.000000
v -12.974724 7.098261 15.000000
v -12.974724 0.100000 14.161842
v 12.974724 0.100000 14.161842
vn -1.0000 -0.0000 -0.0000
vn -0.0000 -0.0000 -1.0000
vn 1.0000 -0.0000 -0.0000
vn -0.0000 -0.0000 1.0000
vn -0.0000 -1.0000 -0.0000
vn -0.0000 1.0000 -0.0000
vt 0.579619 0.678008
vt 0.579619 0.845582
vt 0.021039 0.845582
vt 0.021039 0.678008
vt 0.577940 0.679961
vt 0.577940 0.847535
vt 0.019360 0.847535
vt 0.019360 0.679961
vt 0.579651 0.682782
vt 0.579651 0.850356
vt 0.021071 0.850356
vt 0.021071 0.682782
vt 0.540587 0.476836
vt 0.578296 0.476836
vt 0.578296 0.644410
vt 0.019716 0.644410
vt 0.019716 0.476836
vt 0.057425 0.476836
vt 0.057425 0.607139
vt 0.540587 0.607139
vt 0.347761 0.831012
vt 0.347761 0.829189
vt 0.374765 0.829189
vt 0.374765 0.856193
vt 0.347761 0.856193
vt 0.347761 0.854370
vt 0.348516 0.854370
vt 0.348516 0.831012
vt 0.343741 0.735071
vt 0.343741 0.762075
vt 0.343367 0.762449
vt 0.343367 0.734697
vt 0.034732 0.292867
vt 0.568783 0.292867
vt 0.568783 0.375351
vt 0.034732 0.375351
vt 0.370746 0.762075
vt 0.370746 0.735071
vt 0.371119 0.734697
vt 0.371119 0.762449
vt 0.032962 0.363895
vt 0.572507 0.363895
vt 0.572507 0.291073
vt 0.032962 0.291073
vt 0.036727 0.299638
vt 0.558976 0.299638
vt 0.558976 0.380299
vt 0.036727 0.380299
vt 0.050490 0.295731
vt 0.556715 0.295731
vt 0.556715 0.373917
vt 0.050490 0.373917
vt 0.038187 0.292045
vt 0.570240 0.292045
vt 0.570240 0.374220
vt 0.038187 0.374220
vt 0.283512 0.384915
vt 0.316126 0.384915
vt 0.317209 0.385999
vt 0.282428 0.385999
vt 0.316126 0.352301
vt 0.317209 0.351218
vt 0.283512 0.352301
vt 0.282428 0.351218
vt 0.220312 0.378276
vt 0.220312 0.286269
vt 0.312320 0.286269
vt 0.312320 0.378277
vt 0.033436 0.368778
vt 0.572981 0.368778
vt 0.572981 0.295956
vt 0.033436 0.295956
vt 0.572981 0.368778
vt 0.033436 0.368778
vt 0.033436 0.295956
vt 0.572981 0.295956
vt 0.173697 0.296249
vt 0.374223 0.296249
vt 0.374223 0.321502
vt 0.173697 0.321502
vt 0.516622 0.421776
vt 0.516622 0.603852
vt 0.056241 0.603852
vt 0.056241 0.421776
vt 0.173697 0.321502
vt 0.374223 0.321502
vt 0.374223 0.346756
vt 0.173697 0.346756
vt 0.029890 0.339659
vt 0.574842 0.339659
vt 0.574842 0.357260
vt 0.029890 0.357260
s 0
usemtl OxxoMaterial
f 9/9/7 10/10/7 12/11/7 11/12/7
f 11/13/8 12/14/8 18/15/8 16/16/8
f 16/17/9 18/18/9 15/19/9 14/20/9
f 37/21/10 14/22/10 15/23/10 10/24/10 9/25/10 36/26/10 38/27/10 35/28/10
f 36/29/11 9/30/11 11/31/11 16/32/11 14/33/11 37/34/11 40/35/11 39/36/11
f 10/37/11 15/38/11 22/39/11 19/40/11
f 22/41/9 21/42/9 29/43/9 30/44/9
f 18/45/11 12/46/11 20/47/11 21/48/11
f 15/38/11 18/45/11 21/48/11 22/39/11
f 12/46/11 10/37/11 19/40/11 20/47/11
f 24/49/9 23/50/9 31/51/9 32/52/9
f 20/53/7 19/54/7 27/55/7 28/56/7
f 19/57/10 22/58/10 30/59/10 27/60/10
f 21/61/8 20/62/8 28/63/8 29/64/8
f 23/65/12 24/66/12 28/67/12 27/68/12
f 24/66/12 25/69/12 29/70/12 28/67/12
f 25/69/12 26/71/12 30/72/12 29/70/12
f 26/71/12 23/65/12 27/68/12 30/72/12
f 33/73/12 32/74/12 31/75/12 34/76/12
f 23/77/8 26/78/8 34/79/8 31/80/8
f 25/81/10 24/82/10 32/83/10 33/84/10
f 26/50/7 25/49/7 33/52/7 34/51/7
f 39/85/9 13/86/9 38/87/9 36/88/9
f 40/89/10 17/90/10 13/91/10 39/92/10
f 37/93/7 35/94/7 17/95/7 40/96/7
f 13/97/11 17/98/11 35/99/11 38/100/11
o TopDEtails
v -15.514478 9.541409 16.495131
v -15.514478 13.538318 16.495131
v -15.514478 9.541409 16.189379
v -15.514478 13.538318 16.189379
v 15.514478 9.541409 16.495131
v 15.514478 13.538318 16.495131
v 15.514478 9.541409 16.189379
v 15.514478 13.538318 16.189379
v -14.898420 9.685774 16.191315
v -14.898420 13.246741 16.191315
v -14.898420 9.685774 15.407904
v -14.898420 13.246741 15.407904
v -13.874794 9.685774 16.191315
v -13.874794 13.246741 16.191315
v -13.874794 9.685774 15.407904
v -13.874794 13.246741 15.407904
v 14.898420 9.685774 16.191315
v 14.898420 13.246741 16.191315
v 14.898420 9.685774 15.407904
v 14.898420 13.246741 15.407904
v 13.874794 9.685774 16.191315
v 13.874794 13.246741 16.191315
v 13.874794 9.685774 15.407904
v 13.874794 13.246741 15.407904
vn -1.0000 -0.0000 -0.0000
vn -0.0000 -0.0000 -1.0000
vn 1.0000 -0.0000 -0.0000
vn -0.0000 -0.0000 1.0000
vn -0.0000 -1.0000 -0.0000
vn -0.0000 1.0000 -0.0000
vt 0.332405 0.907631
vt 0.302922 0.907631
vt 0.302922 0.905375
vt 0.332405 0.905375
vt 0.531811 0.949176
vt 0.531811 0.978660
vt 0.302922 0.978660
vt 0.302922 0.949176
vt 0.361889 0.907631
vt 0.361889 0.905375
vt 0.531811 0.919692
vt 0.302922 0.919692
vt 0.302922 0.917437
vt 0.531811 0.917437
vt 0.531811 0.919692
vt 0.302922 0.915181
vt 0.531811 0.915181
vt 0.302922 0.917437
vt 0.322053 0.344628
vt 0.277777 0.344628
vt 0.277777 0.334887
vt 0.322053 0.334887
vt 0.144950 0.344628
vt 0.100674 0.344628
vt 0.100674 0.331900
vt 0.144950 0.331900
vt 0.366329 0.344628
vt 0.366329 0.334887
vt 0.355458 0.915181
vt 0.329189 0.915181
vt 0.329189 0.907631
vt 0.355458 0.907631
vt 0.200066 0.322160
vt 0.212794 0.322160
vt 0.212794 0.331900
vt 0.200066 0.331900
vt 0.225521 0.322160
vt 0.238248 0.322160
vt 0.238248 0.331900
vt 0.225521 0.331900
vt 0.410604 0.334887
vt 0.410604 0.344628
vt 0.233501 0.331900
vt 0.233501 0.344628
vt 0.189226 0.344628
vt 0.189226 0.331900
vt 0.454880 0.334887
vt 0.454880 0.344628
vt 0.407993 0.907631
vt 0.407993 0.915181
vt 0.381725 0.915181
vt 0.381725 0.907631
vt 0.250976 0.322160
vt 0.250976 0.331900
s 0
usemtl OxxoMaterial
f 41/101/13 42/102/13 44/103/13 43/104/13
f 43/105/14 44/106/14 48/107/14 47/108/14
f 47/109/15 48/101/15 46/104/15 45/110/15
f 45/111/16 46/105/16 42/108/16 41/112/16
f 43/113/17 47/114/17 45/115/17 41/112/17
f 48/116/18 44/117/18 42/114/18 46/118/18
f 49/119/13 50/120/13 52/121/13 51/122/13
f 51/123/14 52/124/14 56/125/14 55/126/14
f 55/127/15 56/119/15 54/122/15 53/128/15
f 53/129/16 54/130/16 50/131/16 49/132/16
f 51/133/17 55/134/17 53/135/17 49/136/17
f 56/137/18 52/138/18 50/139/18 54/140/18
f 57/141/15 59/142/15 60/127/15 58/128/15
f 59/143/14 63/144/14 64/145/14 60/146/14
f 63/147/13 61/148/13 62/142/13 64/141/13
f 61/149/16 57/150/16 58/151/16 62/152/16
f 59/153/17 57/154/17 61/139/17 63/138/17
f 64/137/18 62/140/18 58/135/18 60/134/18
o OxxoHolder
v -5.665800 9.030632 16.981102
v -5.665800 14.030874 16.981102
v -5.665800 9.030632 13.868452
v -5.665800 14.030874 13.868452
v 5.665800 9.030632 16.981102
v 5.665800 14.030874 16.981102
v 5.665800 9.030632 13.868452
v 5.665800 14.030874 13.868452
vn -1.0000 -0.0000 -0.0000
vn -0.0000 -0.0000 -1.0000
vn 1.0000 -0.0000 -0.0000
vn -0.0000 -0.0000 1.0000
vn -0.0000 -1.0000 -0.0000
vn -0.0000 1.0000 -0.0000
vt 0.266793 0.287228
vt 0.266793 0.380741
vt 0.325004 0.380741
vt 0.325004 0.287228
vt 0.189938 0.287228
vt 0.189938 0.380741
vt 0.401859 0.380741
vt 0.401859 0.287228
vt 0.189938 0.363090
vt 0.401859 0.363090
vt 0.401859 0.304878
vt 0.189938 0.304878
s 0
usemtl OxxoMaterial
f 65/155/19 66/156/19 68/157/19 67/158/19
f 67/159/20 68/160/20 72/161/20 71/162/20
f 71/158/21 72/157/21 70/156/21 69/155/21
f 69/162/22 70/161/22 66/160/22 65/159/22
f 67/163/23 71/164/23 69/165/23 65/166/23
f 72/164/24 68/163/24 66/166/24 70/165/24
o OxxoLogo
v -4.433763 9.190719 16.939375
v -5.303008 10.059964 16.939375
v -4.868385 9.307177 16.939375
v -5.186551 9.625341 16.939375
v -5.303008 13.001542 16.939375
v -4.433763 13.870788 16.939375
v -5.186551 13.436165 16.939375
v -4.868385 13.754330 16.939375
v 5.303008 10.059964 16.939375
v 4.433763 9.190719 16.939375
v 5.186551 9.625341 16.939375
v 4.868385 9.307177 16.939375
v 4.433763 13.870788 16.939375
v 5.303008 13.001542 16.939375
v 4.868385 13.754330 16.939375
v 5.186551 13.436165 16.939375
v -5.303008 10.059964 17.257692
v -4.433763 9.190719 17.257692
v -5.186551 9.625341 17.257692
v -4.868385 9.307177 17.257692
v -4.433763 13.870788 17.257692
v -5.303008 13.001542 17.257692
v -4.868385 13.754330 17.257692
v -5.186551 13.436165 17.257692
v 5.303008 13.001542 17.257692
v 4.433763 13.870788 17.257692
v 5.186551 13.436165 17.257692
v 4.868385 13.754330 17.257692
v 4.433763 9.190719 17.257692
v 5.303008 10.059964 17.257692
v 4.868385 9.307177 17.257692
v 5.186551 9.625341 17.257692
vn -0.0000 -1.0000 -0.0000
vn -0.0000 1.0000 -0.0000
vn -0.0000 -0.0000 -1.0000
vn 1.0000 -0.0000 -0.0000
vn -0.0000 -0.0000 1.0000
vn 0.9659 -0.2588 -0.0000
vn 0.7071 -0.7071 -0.0000
vn 0.2588 -0.9659 -0.0000
vn -0.9659 -0.2588 -0.0000
vn -0.7071 -0.7071 -0.0000
vn -0.2588 -0.9659 -0.0000
vn -0.2588 0.9659 -0.0000
vn -0.7071 0.7071 -0.0000
vn -0.9659 0.2588 -0.0000
vn 0.9659 0.2588 -0.0000
vn 0.7071 0.7071 -0.0000
vn 0.2588 0.9659 -0.0000
vn -1.0000 -0.0000 -0.0000
vt 0.203590 0.899817
vt 0.209553 0.899817
vt 0.203590 0.987491
vt 0.209553 0.987491
vt 0.203590 0.916101
vt 0.203590 0.907959
vt 0.203590 0.901999
vt 0.203590 0.971207
vt 0.203590 0.979349
vt 0.203590 0.985309
vt 0.209553 0.971207
vt 0.209553 0.916101
vt 0.194369 0.900146
vt 0.202427 0.902305
vt 0.208326 0.908204
vt 0.210485 0.916262
vt 0.210485 0.970800
vt 0.208326 0.978858
vt 0.202427 0.984757
vt 0.194369 0.986917
vt 0.029960 0.986917
vt 0.021902 0.984757
vt 0.016003 0.978858
vt 0.013844 0.970800
vt 0.013844 0.916262
vt 0.016003 0.908204
vt 0.021902 0.902305
vt 0.029960 0.900146
vt 0.209553 0.907959
vt 0.209553 0.901999
vt 0.209553 0.985309
vt 0.209553 0.979349
s 0
usemtl OxxoMaterial
f 73/167/25 82/167/25 101/168/25 90/168/25
f 85/169/26 78/169/26 93/170/26 98/170/26
f 81/171/27 83/172/27 84/173/27 82/167/27 73/167/27 75/173/27 76/172/27 74/171/27 77/174/27 79/175/27 80/176/27 78/169/27 85/169/27 87/176/27 88/175/27 86/174/27
f 81/171/28 86/174/28 97/177/28 102/178/28
f 101/179/29 103/180/29 104/181/29 102/182/29 97/183/29 99/184/29 100/185/29 98/186/29 93/187/29 95/188/29 96/189/29 94/190/29 89/191/29 91/192/29 92/193/29 90/194/29
f 81/171/30 102/178/30 104/195/30 83/172/30
f 83/172/31 104/195/31 103/196/31 84/173/31
f 84/173/32 103/196/32 101/168/32 82/167/32
f 89/178/33 74/171/33 76/172/33 91/195/33
f 91/195/34 76/172/34 75/173/34 92/196/34
f 92/196/35 75/173/35 73/167/35 90/168/35
f 93/170/36 78/169/36 80/176/36 95/197/36
f 95/197/37 80/176/37 79/175/37 96/198/37
f 96/198/38 79/175/38 77/174/38 94/177/38
f 97/177/39 86/174/39 88/175/39 99/198/39
f 99/198/40 88/175/40 87/176/40 100/197/40
f 100/197/41 87/176/41 85/169/41 98/170/41
f 77/174/42 74/171/42 89/178/42 94/177/42
o TopDEtails.001
v -15.514478 9.541409 -16.415089
v -15.514478 13.538318 -16.415089
v -15.514478 9.541409 -16.109337
v -15.514478 13.538318 -16.109337
v 15.514478 9.541409 -16.415089
v 15.514478 13.538318 -16.415089
v 15.514478 9.541409 -16.109337
v 15.514478 13.538318 -16.109337
v -14.898420 9.685774 -16.111273
v -14.898420 13.246741 -16.111273
v -14.898420 9.685774 -15.327862
v -14.898420 13.246741 -15.327862
v -13.874794 9.685774 -16.111273
v -13.874794 13.246741 -16.111273
v -13.874794 9.685774 -15.327862
v -13.874794 13.246741 -15.327862
v 14.898420 9.685774 -16.111273
v 14.898420 13.246741 -16.111273
v 14.898420 9.685774 -15.327862
v 14.898420 13.246741 -15.327862
v 13.874794 9.685774 -16.111273
v 13.874794 13.246741 -16.111273
v 13.874794 9.685774 -15.327862
v 13.874794 13.246741 -15.327862
vn 1.0000 -0.0000 -0.0000
vn -0.0000 -0.0000 -1.0000
vn -1.0000 -0.0000 -0.0000
vn -0.0000 -0.0000 1.0000
vn -0.0000 1.0000 -0.0000
vn -0.0000 -1.0000 -0.0000
vt 0.332405 0.907631
vt 0.302922 0.907631
vt 0.302922 0.905375
vt 0.332405 0.905375
vt 0.531811 0.949176
vt 0.531811 0.978660
vt 0.302922 0.978660
vt 0.302922 0.949176
vt 0.361889 0.907631
vt 0.361889 0.905375
vt 0.531811 0.919692
vt 0.302922 0.919692
vt 0.302922 0.917437
vt 0.531811 0.917437
vt 0.531811 0.919692
vt 0.302922 0.915181
vt 0.531811 0.915181
vt 0.302922 0.917437
vt 0.322053 0.344628
vt 0.277777 0.344628
vt 0.277777 0.334887
vt 0.322053 0.334887
vt 0.144950 0.344628
vt 0.100674 0.344628
vt 0.100674 0.331900
vt 0.144950 0.331900
vt 0.366329 0.344628
vt 0.366329 0.334887
vt 0.355458 0.915181
vt 0.329189 0.915181
vt 0.329189 0.907631
vt 0.355458 0.907631
vt 0.200066 0.322160
vt 0.212794 0.322160
vt 0.212794 0.331900
vt 0.200066 0.331900
vt 0.225521 0.322160
vt 0.238248 0.322160
vt 0.238248 0.331900
vt 0.225521 0.331900
vt 0.410604 0.334887
vt 0.410604 0.344628
vt 0.233501 0.331900
vt 0.233501 0.344628
vt 0.189226 0.344628
vt 0.189226 0.331900
vt 0.454880 0.334887
vt 0.454880 0.344628
vt 0.407993 0.907631
vt 0.407993 0.915181
vt 0.381725 0.915181
vt 0.381725 0.907631
vt 0.250976 0.322160
vt 0.250976 0.331900
s 0
usemtl OxxoMaterial
f 105/199/43 106/200/43 108/201/43 107/202/43
f 107/203/44 108/204/44 112/205/44 111/206/44
f 111/207/45 112/199/45 110/202/45 109/208/45
f 109/209/46 110/203/46 106/206/46 105/210/46
f 107/211/47 111/212/47 109/213/47 105/210/47
f 112/214/48 108/215/48 106/212/48 110/216/48
f 113/217/43 114/218/43 116/219/43 115/220/43
f 115/221/44 116/222/44 120/223/44 119/224/44
f 119/225/45 120/217/45 118/220/45 117/226/45
f 117/227/46 118/228/46 114/229/46 113/230/46
f 115/231/47 119/232/47 117/233/47 113/234/47
f 120/235/48 116/236/48 114/237/48 118/238/48
f 121/239/45 123/240/45 124/225/45 122/226/45
f 123/241/44 127/242/44 128/243/44 124/244/44
f 127/245/43 125/246/43 126/240/43 128/239/43
f 125/247/46 121/248/46 122/249/46 126/250/46
f 123/251/47 121/252/47 125/237/47 127/236/47
f 128/235/48 126/238/48 122/233/48 124/232/48
o TopDEtails.002
v 16.455112 9.541409 15.554498
v 16.455112 13.538318 15.554498
v 16.149359 9.541409 15.554498
v 16.149359 13.538318 15.554498
v 16.455111 9.541409 -15.474458
v 16.455111 13.538318 -15.474458
v 16.149357 9.541409 -15.474458
v 16.149357 13.538318 -15.474458
v 16.151297 9.685774 14.938440
v 16.151297 13.246741 14.938440
v 15.367885 9.685774 14.938440
v 15.367885 13.246741 14.938440
v 16.151297 9.685774 13.914814
v 16.151297 13.246741 13.914814
v 15.367884 9.685774 13.914814
v 15.367884 13.246741 13.914814
v 16.151295 9.685774 -14.858400
v 16.151295 13.246741 -14.858400
v 15.367883 9.685774 -14.858400
v 15.367883 13.246741 -14.858400
v 16.151295 9.685774 -13.834774
v 16.151295 13.246741 -13.834774
v 15.367883 9.685774 -13.834774
v 15.367883 13.246741 -13.834774
vn -0.0000 -0.0000 1.0000
vn -1.0000 -0.0000 -0.0000
vn -0.0000 -0.0000 -1.0000
vn 1.0000 -0.0000 -0.0000
vn -0.0000 -1.0000 -0.0000
vn -0.0000 1.0000 -0.0000
vt 0.332405 0.907631
vt 0.302922 0.907631
vt 0.302922 0.905375
vt 0.332405 0.905375
vt 0.531811 0.949176
vt 0.531811 0.978660
vt 0.302922 0.978660
vt 0.302922 0.949176
vt 0.361889 0.907631
vt 0.361889 0.905375
vt 0.531811 0.919692
vt 0.302922 0.919692
vt 0.302922 0.917437
vt 0.531811 0.917437
vt 0.531811 0.919692
vt 0.302922 0.915181
vt 0.531811 0.915181
vt 0.302922 0.917437
vt 0.322053 0.344628
vt 0.277777 0.344628
vt 0.277777 0.334887
vt 0.322053 0.334887
vt 0.144950 0.344628
vt 0.100674 0.344628
vt 0.100674 0.331900
vt 0.144950 0.331900
vt 0.366329 0.344628
vt 0.366329 0.334887
vt 0.355458 0.915181
vt 0.329189 0.915181
vt 0.329189 0.907631
vt 0.355458 0.907631
vt 0.200066 0.322160
vt 0.212794 0.322160
vt 0.212794 0.331900
vt 0.200066 0.331900
vt 0.225521 0.322160
vt 0.238248 0.322160
vt 0.238248 0.331900
vt 0.225521 0.331900
vt 0.410604 0.334887
vt 0.410604 0.344628
vt 0.233501 0.331900
vt 0.233501 0.344628
vt 0.189226 0.344628
vt 0.189226 0.331900
vt 0.454880 0.334887
vt 0.454880 0.344628
vt 0.407993 0.907631
vt 0.407993 0.915181
vt 0.381725 0.915181
vt 0.381725 0.907631
vt 0.250976 0.322160
vt 0.250976 0.331900
s 0
usemtl OxxoMaterial
f 129/253/49 130/254/49 132/255/49 131/256/49
f 131/257/50 132/258/50 136/259/50 135/260/50
f 135/261/51 136/253/51 134/256/51 133/262/51
f 133/263/52 134/257/52 130/260/52 129/264/52
f 131/265/53 135/266/53 133/267/53 129/264/53
f 136/268/54 132/269/54 130/266/54 134/270/54
f 137/271/49 138/272/49 140/273/49 139/274/49
f 139/275/50 140/276/50 144/277/50 143/278/50
f 143/279/51 144/271/51 142/274/51 141/280/51
f 141/281/52 142/282/52 138/283/52 137/284/52
f 139/285/53 143/286/53 141/287/53 137/288/53
f 144/289/54 140/290/54 138/291/54 142/292/54
f 145/293/51 147/294/51 148/279/51 146/280/51
f 147/295/50 151/296/50 152/297/50 148/298/50
f 151/299/49 149/300/49 150/294/49 152/293/49
f 149/301/52 145/302/52 146/303/52 150/304/52
f 147/305/53 145/306/53 149/291/53 151/290/53
f 152/289/54 150/292/54 146/287/54 148/286/54
o TopDEtails.003
v -16.455111 9.541409 15.554500
v -16.455111 13.538318 15.554500
v -16.149357 9.541409 15.554500
v -16.149357 13.538318 15.554500
v -16.455112 9.541409 -15.474456
v -16.455112 13.538318 -15.474456
v -16.149359 9.541409 -15.474456
v -16.149359 13.538318 -15.474456
v -16.151295 9.685774 14.938442
v -16.151295 13.246741 14.938442
v -15.367883 9.685774 14.938442
v -15.367883 13.246741 14.938442
v -16.151295 9.685774 13.914816
v -16.151295 13.246741 13.914816
v -15.367883 9.685774 13.914816
v -15.367883 13.246741 13.914816
v -16.151297 9.685774 -14.858398
v -16.151297 13.246741 -14.858398
v -15.367885 9.685774 -14.858398
v -15.367885 13.246741 -14.858398
v -16.151297 9.685774 -13.834772
v -16.151297 13.246741 -13.834772
v -15.367884 9.685774 -13.834772
v -15.367884 13.246741 -13.834772
vn -0.0000 -0.0000 -1.0000
vn -1.0000 -0.0000 -0.0000
vn -0.0000 -0.0000 1.0000
vn 1.0000 -0.0000 -0.0000
vn -0.0000 1.0000 -0.0000
vn -0.0000 -1.0000 -0.0000
vt 0.332405 0.907631
vt 0.302922 0.907631
vt 0.302922 0.905375
vt 0.332405 0.905375
vt 0.531811 0.949176
vt 0.531811 0.978660
vt 0.302922 0.978660
vt 0.302922 0.949176
vt 0.361889 0.907631
vt 0.361889 0.905375
vt 0.531811 0.919692
vt 0.302922 0.919692
vt 0.302922 0.917437
vt 0.531811 0.917437
vt 0.531811 0.919692
vt 0.302922 0.915181
vt 0.531811 0.915181
vt 0.302922 0.917437
vt 0.322053 0.344628
vt 0.277777 0.344628
vt 0.277777 0.334887
vt 0.322053 0.334887
vt 0.144950 0.344628
vt 0.100674 0.344628
vt 0.100674 0.331900
vt 0.144950 0.331900
vt 0.366329 0.344628
vt 0.366329 0.334887
vt 0.355458 0.915181
vt 0.329189 0.915181
vt 0.329189 0.907631
vt 0.355458 0.907631
vt 0.200066 0.322160
vt 0.212794 0.322160
vt 0.212794 0.331900
vt 0.200066 0.331900
vt 0.225521 0.322160
vt 0.238248 0.322160
vt 0.238248 0.331900
vt 0.225521 0.331900
vt 0.410604 0.334887
vt 0.410604 0.344628
vt 0.233501 0.331900
vt 0.233501 0.344628
vt 0.189226 0.344628
vt 0.189226 0.331900
vt 0.454880 0.334887
vt 0.454880 0.344628
vt 0.407993 0.907631
vt 0.407993 0.915181
vt 0.381725 0.915181
vt 0.381725 0.907631
vt 0.250976 0.322160
vt 0.250976 0.331900
s 0
usemtl OxxoMaterial
f 153/307/55 154/308/55 156/309/55 155/310/55
f 155/311/56 156/312/56 160/313/56 159/314/56
f 159/315/57 160/307/57 158/310/57 157/316/57
f 157/317/58 158/311/58 154/314/58 153/318/58
f 155/319/59 159/320/59 157/321/59 153/318/59
f 160/322/60 156/323/60 154/320/60 158/324/60
f 161/325/55 162/326/55 164/327/55 163/328/55
f 163/329/56 164/330/56 168/331/56 167/332/56
f 167/333/57 168/325/57 166/328/57 165/334/57
f 165/335/58 166/336/58 162/337/58 161/338/58
f 163/339/59 167/340/59 165/341/59 161/342/59
f 168/343/60 164/344/60 162/345/60 166/346/60
f 169/347/57 171/348/57 172/333/57 170/334/57
f 171/349/56 175/350/56 176/351/56 172/352/56
f 175/353/55 173/354/55 174/348/55 176/347/55
f 173/355/58 169/356/58 170/357/58 174/358/58
f 171/359/59 169/360/59 173/345/59 175/344/59
f 176/343/60 174/346/60 170/341/60 172/340/60
